<svg xmlns="http://www.w3.org/2000/svg" version="1.1" xmlns:xlink="http://www.w3.org/1999/xlink" xmlns:svgjs="http://svgjs.dev/svgjs" width="1000" height="1000" viewBox="0 0 1000 1000"><rect width="1000" height="1000" fill="#000000"></rect><g transform="matrix(0.7,0,0,0.7,149.57575757575756,457.4265169666644)"><svg viewBox="0 0 396 48" data-background-color="#528265" preserveAspectRatio="xMidYMid meet" height="121" width="1000" xmlns="http://www.w3.org/2000/svg" xmlns:xlink="http://www.w3.org/1999/xlink"><g id="tight-bounds" transform="matrix(1,0,0,1,0.2400000000000091,0.12664918063879327)"><svg viewBox="0 0 395.52 47.74670163872243" height="47.74670163872243" width="395.52"><g><svg viewBox="0 0 461.72753888373074 55.73919659552766" height="47.74670163872243" width="395.52"><g><rect width="1.681496949702017" height="48.398723527230956" x="399.92182447565966" y="3.6702365341483514" fill="#ffffff" opacity="1" stroke-width="0" stroke="transparent" fill-opacity="1" class="rect-in-0" data-fill-palette-color="primary" rx="1%" id="in-0" data-palette-color="#ffffff"></rect></g><g transform="matrix(1,0,0,1,0,7.703463494750931)"><svg viewBox="0 0 395.5199999999999 40.3322696060258" height="40.3322696060258" width="395.5199999999999"><g><svg viewBox="0 0 395.5199999999999 40.3322696060258" height="40.3322696060258" width="395.5199999999999"><g><svg viewBox="0 0 395.5199999999999 18.645794047932572" height="18.645794047932572" width="395.5199999999999"><g transform="matrix(1,0,0,1,0,0)"><svg width="395.5199999999999" viewBox="2.3 -35.5 759.33 35.8" height="18.645794047932572" data-palette-color="#ffffff"><path d="M18.1 0.3L18.1 0.3Q10.85 0.3 6.58-4.6 2.3-9.5 2.3-17.68 2.3-25.85 6.35-30.68 10.4-35.5 17.65-35.5L17.65-35.5Q22.25-35.5 27-33.7L27-33.7 26.1-30.6Q24.4-31.3 21.65-31.78 18.9-32.25 17.4-32.25L17.4-32.25Q12.15-32.25 9.1-28.4 6.05-24.55 6.05-18 6.05-11.45 9.28-7.2 12.5-2.95 17.55-2.95L17.55-2.95Q21.1-2.95 24.25-3.95L24.25-3.95 24.25-14.5 16.95-14.5 16.95-17.75 28-17.75 28-2.4Q23.3 0.3 18.1 0.3ZM55.6-3.25L55.6 0 36.85 0 36.85-35 40.6-35 40.6-3.25 55.6-3.25ZM72.1 0.25L72.1 0.25Q65.25 0.25 61.75-4.83 58.25-9.9 58.25-17.75 58.25-25.6 61.77-30.55 65.3-35.5 72.12-35.5 78.95-35.5 82.5-30.55 86.05-25.6 86.05-17.75L86.05-17.75Q86.05-7 79.95-2.25L79.95-2.25Q76.7 0.25 72.1 0.25ZM72.2-32.25L72.2-32.25Q67.1-32.25 64.57-28 62.05-23.75 62.05-17.6 62.05-11.45 64.62-7.25 67.2-3.05 72.2-3.05 77.2-3.05 79.75-7.3 82.3-11.55 82.3-18L82.3-18Q82.3-26.1 77.75-30.1L77.75-30.1Q75.4-32.25 72.2-32.25ZM102.54 0L92.89 0 92.89-35 102.89-35Q108.24-35 110.89-32.68 113.54-30.35 113.54-26.05L113.54-26.05Q113.54-23.15 111.64-21.25 109.74-19.35 106.49-18.95L106.49-18.95Q110.49-18.35 112.72-16.1 114.94-13.85 114.94-10.5L114.94-10.5Q114.94-5.75 111.67-2.88 108.39 0 102.54 0L102.54 0ZM96.79-17.15L96.79-3.25 103.74-3.25Q107.04-3.25 109.04-5.25 111.04-7.25 111.04-10.25 111.04-13.25 108.92-15.2 106.79-17.15 102.69-17.15L102.69-17.15 96.79-17.15ZM103.14-31.75L103.14-31.75 96.79-31.75 96.79-20.35 102.64-20.35Q105.39-20.35 107.52-21.88 109.64-23.4 109.64-26.1L109.64-26.1Q109.64-31.55 103.14-31.75ZM134.39-35L145.99 0 141.79 0 138.29-11.05 125.74-11.05 122.29 0 118.34 0 129.84-35 134.39-35ZM126.69-14.3L137.44-14.3 132.09-31.2 126.69-14.3ZM169.94-3.25L169.94 0 151.19 0 151.19-35 154.94-35 154.94-3.25 169.94-3.25ZM206.18-3.25L206.18 0 187.33 0 187.33-35 206.18-35 206.18-31.75 191.08-31.75 191.08-20.65 204.93-20.65 204.93-17.3 191.08-17.3 191.08-3.25 206.18-3.25ZM239.73-18.75L239.73-18.75Q239.73-10.3 234.83-5.15 229.93 0 221.73 0L221.73 0 214.43 0 214.43-35 223.28-35Q230.73-35 235.23-30.45 239.73-25.9 239.73-18.75ZM235.68-19.15L235.68-19.15Q235.68-25.05 232.08-28.4 228.48-31.75 223.48-31.75L223.48-31.75 218.48-31.75 218.48-3.25 222.18-3.25Q227.83-3.25 231.75-7.5 235.68-11.75 235.68-19.15ZM267.8-3.03Q264.73 0.3 258.83 0.3 252.93 0.3 249.85-3.03 246.78-6.35 246.78-12.9L246.78-12.9 246.78-35 250.58-35 250.58-12.3Q250.58-7.85 252.7-5.4 254.83-2.95 258.75-2.95 262.68-2.95 264.88-5.38 267.08-7.8 267.08-12.3L267.08-12.3 267.08-35 270.88-35 270.88-12.9Q270.88-6.35 267.8-3.03ZM292.73 0.3L292.73 0.3Q285.57 0.3 281.75-4.53 277.93-9.35 277.93-17.6 277.93-25.85 281.98-30.65 286.03-35.45 293.28-35.45L293.28-35.45Q297.28-35.45 301.13-34L301.13-34 300.23-30.9Q297.18-32.2 293.03-32.2L293.03-32.2Q287.78-32.2 284.73-28.38 281.68-24.55 281.68-17.88 281.68-11.2 284.55-7.08 287.43-2.95 292.57-2.95L292.57-2.95Q295.98-2.95 301.13-4.9L301.13-4.9 302.13-2.3Q297.82 0.3 292.73 0.3ZM321.32-35L332.92 0 328.72 0 325.22-11.05 312.67-11.05 309.22 0 305.27 0 316.77-35 321.32-35ZM313.62-14.3L324.37-14.3 319.02-31.2 313.62-14.3ZM346.07 0L342.37 0 342.37-31.65 332.57-31.65 332.57-35 355.77-35 355.77-31.65 346.07-31.65 346.07 0ZM365.07-35L365.07 0 361.32 0 361.32-35 365.07-35ZM385.76 0.25L385.76 0.25Q378.92 0.25 375.42-4.83 371.92-9.9 371.92-17.75 371.92-25.6 375.44-30.55 378.97-35.5 385.79-35.5 392.62-35.5 396.17-30.55 399.72-25.6 399.72-17.75L399.72-17.75Q399.72-7 393.62-2.25L393.62-2.25Q390.37 0.25 385.76 0.25ZM385.87-32.25L385.87-32.25Q380.76-32.25 378.24-28 375.72-23.75 375.72-17.6 375.72-11.45 378.29-7.25 380.87-3.05 385.87-3.05 390.87-3.05 393.42-7.3 395.97-11.55 395.97-18L395.97-18Q395.97-26.1 391.42-30.1L391.42-30.1Q389.06-32.25 385.87-32.25ZM431.41-35L431.41 0.05 427.31 0.05 410.46-28 410.46 0 406.56 0 406.56-35 410.46-35 427.66-5.9 427.66-35 431.41-35ZM465.76 0.3L465.76 0.3Q458.61 0.3 454.78-4.53 450.96-9.35 450.96-17.6 450.96-25.85 455.01-30.65 459.06-35.45 466.31-35.45L466.31-35.45Q470.31-35.45 474.16-34L474.16-34 473.26-30.9Q470.21-32.2 466.06-32.2L466.06-32.2Q460.81-32.2 457.76-28.38 454.71-24.55 454.71-17.88 454.71-11.2 457.58-7.08 460.46-2.95 465.61-2.95L465.61-2.95Q469.01-2.95 474.16-4.9L474.16-4.9 475.16-2.3Q470.86 0.3 465.76 0.3ZM493.8 0.25L493.8 0.25Q486.95 0.25 483.45-4.83 479.95-9.9 479.95-17.75 479.95-25.6 483.48-30.55 487-35.5 493.83-35.5 500.65-35.5 504.2-30.55 507.75-25.6 507.75-17.75L507.75-17.75Q507.75-7 501.65-2.25L501.65-2.25Q498.4 0.25 493.8 0.25ZM493.9-32.25L493.9-32.25Q488.8-32.25 486.28-28 483.75-23.75 483.75-17.6 483.75-11.45 486.33-7.25 488.9-3.05 493.9-3.05 498.9-3.05 501.45-7.3 504-11.55 504-18L504-18Q504-26.1 499.45-30.1L499.45-30.1Q497.1-32.25 493.9-32.25ZM539.45-35L539.45 0.05 535.35 0.05 518.5-28 518.5 0 514.6 0 514.6-35 518.5-35 535.7-5.9 535.7-35 539.45-35ZM566.15-33.75L566.15-33.75 565.35-30.4 562.45-31.25Q559.35-32 557.1-32L557.1-32Q551.2-32 551.2-26.75L551.2-26.75Q551.2-24.45 553-22.98 554.8-21.5 557.37-20.63 559.95-19.75 562.52-18.73 565.1-17.7 566.9-15.58 568.7-13.45 568.7-10.2L568.7-10.2Q568.7-5.25 565.65-2.48 562.6 0.3 557 0.3L557 0.3Q554.2 0.3 551.37-0.53 548.55-1.35 546.75-2.45L546.75-2.45 548-5.3Q552.55-3.2 556.62-3.2 560.7-3.2 562.82-4.85 564.95-6.5 564.95-9.65L564.95-9.65Q564.95-12.85 561.5-14.65L561.5-14.65Q559.95-15.45 558.07-16.15 556.2-16.85 554.32-17.68 552.45-18.5 550.92-19.55 549.4-20.6 548.42-22.4 547.45-24.2 547.45-26.6L547.45-26.6Q547.45-30.9 550.02-33.2 552.6-35.5 556.95-35.5 561.3-35.5 566.15-33.75ZM597.12-3.03Q594.05 0.3 588.15 0.3 582.25 0.3 579.17-3.03 576.1-6.35 576.1-12.9L576.1-12.9 576.1-35 579.9-35 579.9-12.3Q579.9-7.85 582.02-5.4 584.15-2.95 588.07-2.95 592-2.95 594.2-5.38 596.4-7.8 596.4-12.3L596.4-12.3 596.4-35 600.2-35 600.2-12.9Q600.2-6.35 597.12-3.03ZM628.04-3.25L628.04 0 609.29 0 609.29-35 613.04-35 613.04-3.25 628.04-3.25ZM640.14 0L636.44 0 636.44-31.65 626.64-31.65 626.64-35 649.84-35 649.84-31.65 640.14-31.65 640.14 0ZM665.54-35L677.14 0 672.94 0 669.44-11.05 656.89-11.05 653.44 0 649.49 0 660.99-35 665.54-35ZM657.84-14.3L668.59-14.3 663.24-31.2 657.84-14.3ZM707.19-35L707.19 0.05 703.09 0.05 686.24-28 686.24 0 682.34 0 682.34-35 686.24-35 703.44-5.9 703.44-35 707.19-35ZM726.23 0L722.53 0 722.53-31.65 712.73-31.65 712.73-35 735.93-35 735.93-31.65 726.23-31.65 726.23 0ZM759.08-33.75L759.08-33.75 758.28-30.4 755.38-31.25Q752.28-32 750.03-32L750.03-32Q744.13-32 744.13-26.75L744.13-26.75Q744.13-24.45 745.93-22.98 747.73-21.5 750.31-20.63 752.88-19.75 755.46-18.73 758.03-17.7 759.83-15.58 761.63-13.45 761.63-10.2L761.63-10.2Q761.63-5.25 758.58-2.48 755.53 0.3 749.93 0.3L749.93 0.3Q747.13 0.3 744.31-0.53 741.48-1.35 739.68-2.45L739.68-2.45 740.93-5.3Q745.48-3.2 749.56-3.2 753.63-3.2 755.76-4.85 757.88-6.5 757.88-9.65L757.88-9.65Q757.88-12.85 754.43-14.65L754.43-14.65Q752.88-15.45 751.01-16.15 749.13-16.85 747.26-17.68 745.38-18.5 743.86-19.55 742.33-20.6 741.36-22.4 740.38-24.2 740.38-26.6L740.38-26.6Q740.38-30.9 742.96-33.2 745.53-35.5 749.88-35.5 754.23-35.5 759.08-33.75Z" opacity="1" transform="matrix(1,0,0,1,0,0)" fill="#ffffff" class="undefined-text-0" data-fill-palette-color="primary" id="text-0"></path></svg></g></svg></g><g transform="matrix(1,0,0,1,299.5037632370819,23.047618523592302)"><svg viewBox="0 0 96.01623676291806 17.284651082433495" height="17.284651082433495" width="96.01623676291806"><g transform="matrix(1,0,0,1,0,0)"><svg width="96.01623676291806" viewBox="1.35 -37.5 277.71999999999997 50" height="17.284651082433495" data-palette-color="#ffffff"><path d="M7.6-28.55L7.6-28.55Q7.6-32.4 10.93-34.95 14.25-37.5 19.15-37.5L19.15-37.5Q22.95-37.5 25.08-35.95 27.2-34.4 27.2-31.5L27.2-31.5Q27.2-29.25 26.08-27.85 24.95-26.45 23.1-26.45L23.1-26.45Q22.4-26.45 21.83-26.7 21.25-26.95 20.8-27.5L20.8-27.5Q21.8-28.1 22.43-29.3 23.05-30.5 23.05-31.8L23.05-31.8Q23.05-33.4 22.1-34.27 21.15-35.15 19.35-35.15L19.35-35.15Q17.2-35.15 15.98-33.95 14.75-32.75 14.75-30.6L14.75-30.6Q14.75-28.85 15.65-27.28 16.55-25.7 19.55-23.05L19.55-23.05Q23.5-19.6 24.75-17.07 26-14.55 26-11.45L26-11.45Q26-5.75 22.05-2.35 18.1 1.05 11.95 1.05L11.95 1.05Q7.05 1.05 4.2-1.2 1.35-3.45 1.35-7.55L1.35-7.55Q1.35-11.15 3.5-13.45 5.65-15.75 8.7-15.75L8.7-15.75Q10.6-15.75 11.8-14.88 13-14 13.1-12.45L13.1-12.45Q10.5-12.45 8.88-11.2 7.25-9.95 7.25-7.75L7.25-7.75Q7.25-5.65 8.55-4.3 9.85-2.95 12.05-2.95L12.05-2.95Q14.65-2.95 16.25-4.75 17.85-6.55 17.85-9.6L17.85-9.6Q17.85-11.95 16.8-14.1 15.75-16.25 12.45-19.85L12.45-19.85Q9.45-23.05 8.53-24.88 7.6-26.7 7.6-28.55ZM29.85-23L30.25-25 31.9-25 33.4-31.9 40.8-32.9 39.1-25 42.1-25 41.7-23 38.7-23 35.5-8Q35.4-7.55 35.35-7.18 35.3-6.8 35.3-6.4L35.3-6.4Q35.3-5.4 35.77-4.98 36.25-4.55 37.35-4.55L37.35-4.55Q38.75-4.55 40-5.78 41.25-7 41.85-8.95L41.85-8.95 43.95-8.95Q42.35-4.4 39.65-2.05 36.95 0.3 33.45 0.3L33.45 0.3Q30.95 0.3 29.52-1.28 28.1-2.85 28.1-5.7L28.1-5.7Q28.1-6.35 28.2-7.18 28.3-8 28.5-8.95L28.5-8.95 31.5-23 29.85-23ZM50.2-4.55L50.2-4.55Q51.49-4.55 52.52-5.68 53.55-6.8 54.2-8.95L54.2-8.95 57.59-25 64.8-25 61.2-8Q61.09-7.55 61.05-7.18 61-6.8 61-6.4L61-6.4Q61-5.4 61.47-4.98 61.95-4.55 63.05-4.55L63.05-4.55Q64.34-4.55 65.39-5.7 66.44-6.85 67.09-8.95L67.09-8.95 69.19-8.95Q67.59-4.35 65.05-2.02 62.5 0.3 59.14 0.3L59.14 0.3Q56.99 0.3 55.7-0.93 54.39-2.15 54.2-4.45L54.2-4.45Q52.74-2.05 50.92-0.88 49.09 0.3 46.8 0.3L46.8 0.3Q44.3 0.3 42.87-1.28 41.45-2.85 41.45-5.7L41.45-5.7Q41.45-6.35 41.55-7.18 41.64-8 41.84-8.95L41.84-8.95 45.24-25 52.45-25 48.84-8Q48.74-7.6 48.72-7.28 48.7-6.95 48.7-6.6L48.7-6.6Q48.7-5.6 49.07-5.08 49.45-4.55 50.2-4.55ZM73.84-8.45L73.84-8.45Q73.84-6.5 74.39-5.53 74.94-4.55 76.34-4.55L76.34-4.55Q77.59-4.55 78.79-5.73 79.99-6.9 80.44-8.7L80.44-8.7 80.44-8.95 82.89-20.4Q82.74-21.2 82.22-21.68 81.69-22.15 80.84-22.15L80.84-22.15Q78.09-22.15 75.97-17.55 73.84-12.95 73.84-8.45ZM83.34-22.7L83.34-22.7 83.34-22.5 85.79-34 93.19-35 87.44-8Q87.34-7.55 87.29-7.18 87.24-6.8 87.24-6.4L87.24-6.4Q87.24-5.4 87.72-4.98 88.19-4.55 89.29-4.55L89.29-4.55Q90.59-4.55 91.64-5.7 92.69-6.85 93.34-8.95L93.34-8.95 95.44-8.95Q93.89-4.5 91.42-2.25 88.94 0 85.39 0L85.39 0Q83.34 0 82.07-1.13 80.79-2.25 80.49-4.3L80.49-4.3Q78.99-2 77.14-0.85 75.29 0.3 73.09 0.3L73.09 0.3Q69.99 0.3 68.22-1.8 66.44-3.9 66.44-7.75L66.44-7.75Q66.44-10.55 67.29-13.6 68.14-16.65 69.64-19.15L69.64-19.15Q71.49-22.1 73.94-23.68 76.39-25.25 79.29-25.25L79.29-25.25Q81.24-25.25 82.29-24.58 83.34-23.9 83.34-22.7ZM101.69-4.55L101.69-4.55Q102.94-4.55 103.94-5.6 104.94-6.65 105.59-8.65L105.59-8.65 109.09-25 116.29-25 111.34-1.8Q113.84-2.7 115.27-4.33 116.69-5.95 117.64-8.95L117.64-8.95 119.74-8.95Q118.59-5.15 116.47-2.85 114.34-0.55 110.89 0.4L110.89 0.4 110.14 4Q109.24 8.2 106.99 10.35 104.74 12.5 101.14 12.5L101.14 12.5Q98.59 12.5 97.06 11.2 95.54 9.9 95.54 7.65L95.54 7.65Q95.54 5.2 97.56 3.33 99.59 1.45 103.69 0.2L103.69 0.2 104.29-2.5Q103.04-1.1 101.56-0.4 100.09 0.3 98.29 0.3L98.29 0.3Q95.79 0.3 94.37-1.28 92.94-2.85 92.94-5.7L92.94-5.7Q92.94-6.35 93.04-7.18 93.14-8 93.34-8.95L93.34-8.95 96.74-25 103.94-25 100.34-8Q100.29-7.7 100.24-7.38 100.19-7.05 100.19-6.75L100.19-6.75Q100.19-5.7 100.56-5.13 100.94-4.55 101.69-4.55ZM102.89 4.15L103.19 2.7Q100.69 3.65 99.49 4.67 98.29 5.7 98.29 6.95L98.29 6.95Q98.29 7.6 98.79 8.1 99.29 8.6 99.99 8.6L99.99 8.6Q100.84 8.6 101.64 7.4 102.44 6.2 102.89 4.15L102.89 4.15ZM152.34-20.35L155.24-33.95Q153.19-32.85 150.89-29.83 148.59-26.8 146.24-22.1L146.24-22.1Q148.04-21.75 149.56-21.3 151.09-20.85 152.34-20.35L152.34-20.35ZM159.14-37.5L159.14-37.5Q160.19-37.5 161.24-37.33 162.29-37.15 163.09-36.8L163.09-36.8 155.24 0 148.04 0 151.89-18.15Q150.14-18.95 148.59-19.38 147.04-19.8 145.19-19.95L145.19-19.95Q142.34-13.75 140.51-7.35 138.69-0.95 138.69 2.9L138.69 2.9Q138.69 3.8 138.86 4.48 139.04 5.15 139.39 5.7L139.39 5.7Q135.59 5.7 134.14 4.4 132.69 3.1 132.69 0.4L132.69 0.4Q132.69-2.95 134.71-8.55 136.74-14.15 140.04-19.95L140.04-19.95Q137.49-19.8 136.06-19.15 134.64-18.5 134.19-17.35L134.19-17.35Q134.39-17.35 134.61-16.82 134.84-16.3 134.84-15.8L134.84-15.8Q134.84-14.95 134.04-14.4 133.24-13.85 132.04-13.85L132.04-13.85Q130.64-13.85 129.79-14.63 128.94-15.4 128.94-16.75L128.94-16.75Q128.94-19.35 131.86-21.13 134.79-22.9 139.14-22.9L139.14-22.9Q139.64-22.9 140.29-22.88 140.94-22.85 141.74-22.75L141.74-22.75Q146.14-29.7 150.69-33.6 155.24-37.5 159.14-37.5ZM168.53 0.3L168.53 0.3Q165.18 0.3 163.36-1.38 161.53-3.05 161.53-6.1L161.53-6.1Q161.53-6.8 161.63-7.5 161.73-8.2 161.88-8.95L161.88-8.95 167.23-34 174.63-35 172.23-23.75Q173.43-24.5 174.36-24.83 175.28-25.15 176.33-25.15L176.33-25.15Q179.28-25.15 180.76-23.03 182.23-20.9 182.23-16.6L182.23-16.6Q182.23-13.65 181.33-10.55 180.43-7.45 178.83-5.15L178.83-5.15Q176.98-2.45 174.38-1.07 171.78 0.3 168.53 0.3ZM168.68-6.85L168.68-6.85Q168.68-5.7 169.36-5.13 170.03-4.55 171.33-4.55L171.33-4.55Q173.58-4.55 175.38-8.5 177.18-12.45 177.18-16.8L177.18-16.8Q177.18-18.9 176.46-20.25 175.73-21.6 174.53-21.6L174.53-21.6Q173.73-21.6 172.83-21.35 171.93-21.1 171.58-20.7L171.58-20.7 168.83-8Q168.78-7.7 168.73-7.4 168.68-7.1 168.68-6.85ZM193.38-19L189.38 0 182.18 0 187.48-25 194.68-25 194.03-21.9Q196.23-23.75 197.51-24.38 198.78-25 200.08-25L200.08-25Q201.63-25 202.58-23.93 203.53-22.85 203.53-21.25L203.53-21.25Q203.53-19.7 202.53-18.65 201.53-17.6 199.93-17.6L199.93-17.6Q199.08-17.6 198.61-18 198.13-18.4 197.93-19.65L197.93-19.65Q197.78-20.45 197.58-20.68 197.38-20.9 197.03-20.9L197.03-20.9Q196.18-20.9 195.43-20.55 194.68-20.2 193.38-19L193.38-19ZM202.03-7.7L202.03-7.7Q202.03-10.55 202.95-13.75 203.88-16.95 205.48-19.45L205.48-19.45Q207.33-22.4 209.93-23.93 212.53-25.45 215.73-25.45L215.73-25.45Q218.93-25.45 220.53-23.45 222.13-21.45 222.13-17.45L222.13-17.45Q222.23-17.4 222.35-17.38 222.48-17.35 222.68-17.35L222.68-17.35Q224.23-17.35 226.38-18.2 228.53-19.05 230.38-20.35L230.38-20.35 230.83-19Q229.43-17.5 227.1-16.4 224.78-15.3 221.98-14.85L221.98-14.85Q221.38-8.1 218.08-3.95 214.78 0.2 210.03 0.2L210.03 0.2Q206.13 0.2 204.08-1.8 202.03-3.8 202.03-7.7ZM216.13-22.4L216.13-22.4Q213.73-22.4 211.6-17.55 209.48-12.7 209.48-8.35L209.48-8.35Q209.48-6 210-5.15 210.53-4.3 212.03-4.3L212.03-4.3Q213.88-4.3 215.55-7.3 217.23-10.3 217.83-14.7L217.83-14.7Q217.13-14.85 216.8-15.38 216.48-15.9 216.48-16.8L216.48-16.8Q216.48-17.75 216.88-18.45 217.28-19.15 218.03-19.5L218.03-19.5Q217.93-21.1 217.5-21.75 217.08-22.4 216.13-22.4ZM241.23-22.7L241.23-22.7 241.23-22.35 241.78-25 248.98-25 245.38-8Q245.28-7.55 245.23-7.18 245.18-6.8 245.18-6.4L245.18-6.4Q245.18-5.3 245.68-4.78 246.18-4.25 247.23-4.25L247.23-4.25Q248.53-4.25 249.58-5.48 250.63-6.7 251.28-8.95L251.28-8.95 253.38-8.95Q251.78-4.35 249.23-2.02 246.68 0.3 243.33 0.3L243.33 0.3Q241.18 0.3 239.9-0.9 238.63-2.1 238.43-4.3L238.43-4.3Q236.88-2 235-0.85 233.13 0.3 230.98 0.3L230.98 0.3Q227.88 0.3 226.1-1.8 224.33-3.9 224.33-7.75L224.33-7.75Q224.33-10.55 225.18-13.6 226.03-16.65 227.53-19.15L227.53-19.15Q229.38-22.1 231.83-23.68 234.28-25.25 237.18-25.25L237.18-25.25Q239.13-25.25 240.18-24.58 241.23-23.9 241.23-22.7ZM238.38-8.95L240.78-20.25Q240.78-21 240.23-21.58 239.68-22.15 238.73-22.15L238.73-22.15Q235.98-22.15 233.85-17.55 231.73-12.95 231.73-8.45L231.73-8.45Q231.73-6.5 232.28-5.53 232.83-4.55 234.23-4.55L234.23-4.55Q235.53-4.55 236.75-5.8 237.98-7.05 238.38-8.95L238.38-8.95ZM257.47-8.45L257.47-8.45Q257.47-6.5 258.02-5.53 258.57-4.55 259.97-4.55L259.97-4.55Q261.22-4.55 262.42-5.73 263.62-6.9 264.07-8.7L264.07-8.7 264.07-8.95 266.52-20.4Q266.37-21.2 265.85-21.68 265.32-22.15 264.47-22.15L264.47-22.15Q261.72-22.15 259.6-17.55 257.47-12.95 257.47-8.45ZM266.97-22.7L266.97-22.7 266.97-22.5 269.42-34 276.82-35 271.07-8Q270.97-7.55 270.92-7.18 270.87-6.8 270.87-6.4L270.87-6.4Q270.87-5.4 271.35-4.98 271.82-4.55 272.92-4.55L272.92-4.55Q274.22-4.55 275.27-5.7 276.32-6.85 276.97-8.95L276.97-8.95 279.07-8.95Q277.52-4.5 275.05-2.25 272.57 0 269.02 0L269.02 0Q266.97 0 265.7-1.13 264.42-2.25 264.12-4.3L264.12-4.3Q262.62-2 260.77-0.85 258.92 0.3 256.72 0.3L256.72 0.3Q253.62 0.3 251.85-1.8 250.07-3.9 250.07-7.75L250.07-7.75Q250.07-10.55 250.92-13.6 251.77-16.65 253.27-19.15L253.27-19.15Q255.12-22.1 257.57-23.68 260.02-25.25 262.92-25.25L262.92-25.25Q264.87-25.25 265.92-24.58 266.97-23.9 266.97-22.7Z" opacity="1" transform="matrix(1,0,0,1,0,0)" fill="#ffffff" class="undefined-text-1" data-fill-palette-color="secondary" id="text-1"></path></svg></g></svg></g></svg></g></svg></g><g transform="matrix(1,0,0,1,406.0051459010214,0)"><svg viewBox="0 0 55.72239298270931 55.73919659552766" height="55.73919659552766" width="55.72239298270931"><g><svg xmlns="http://www.w3.org/2000/svg" xmlns:xlink="http://www.w3.org/1999/xlink" version="1.1" x="0" y="0" viewBox="5.0880977198060595 4.656180236172516 66.54412884490382 66.56419585417227" enable-background="new 0 0 75 75" xml:space="preserve" height="55.73919659552766" width="55.72239298270931" class="icon-icon-0" data-fill-palette-color="accent" id="icon-0"><g fill="#ffffff" data-fill-palette-color="accent"><g fill="#ffffff" data-fill-palette-color="accent"><g fill="#ffffff" data-fill-palette-color="accent"><path d="M14.291 23.127l-1.135 2.508c1.796 1.206 3.72 2.119 5.757 2.738 0.263-1.003 0.713-1.983 1.072-2.967 0.146-0.398-0.252-1.393 0.857-0.933 0.088-0.273 0.301-0.583 0.236-0.814-0.134-0.477-0.427-0.908-0.633-1.367-0.095-0.21-0.237-0.468-0.189-0.664 0.38-1.584-0.036-3.172 0.041-4.756 0.006-0.128-0.278-0.28-0.439-0.403-0.185-0.141-0.395-0.249-0.574-0.396-1.463-1.198-2.426-1.385-3.374-0.132-0.15 0.199-0.342 0.378-0.545 0.522-0.257 0.181-0.546 0.317-0.822 0.472-0.038-0.375-0.18-0.78-0.085-1.118 0.086-0.307 0.402-0.572 0.664-0.801 0.416-0.365 0.884-0.671 1.306-1.031 0.252-0.215 0.657-0.461 0.264-0.834-0.083-0.08-0.534 0.103-0.719 0.271-1.99 1.808-3.815 3.777-5.269 6.041-0.494 0.769-0.956 1.545-1.386 2.328L14.291 23.127z" fill="#ffffff" data-fill-palette-color="accent"></path></g><g fill="#ffffff" data-fill-palette-color="accent"><path d="M42.123 70.074c0.229-1.125-1.058-2.229-0.039-3.361 0.114-0.125 0.1-0.384 0.111-0.584 0.045-0.854-0.042-1.737 0.143-2.56 0.435-1.93-0.199-3.083-2.059-3.853-0.734-0.304-1.191-1.295-1.76-1.986-0.47-0.573-0.929-1.158-1.372-1.753-0.136-0.184-0.329-0.47-0.27-0.622 0.149-0.387 0.425-0.726 0.651-1.084-0.604-0.302-0.548-0.758-0.238-1.217 0.247-0.365 0.524-0.724 0.851-1.016 0.798-0.714 0.845-1.546 0.498-2.474-0.14-0.376-0.271-0.755-0.407-1.131-0.316 0.009-0.633 0.019-0.949 0.028-0.189 0.171-0.423 0.519-0.559 0.484-0.883-0.226-1.81-0.594-2.244-1.382-0.983-1.784-3.254-1.469-4.415-2.893-0.024-0.03-0.102-0.041-0.145-0.029-1.508 0.432-2.595-0.568-3.797-1.139-0.696-0.33-1.188-0.803-1.264-1.716-0.054-0.651-0.482-1.281-0.789-1.898-0.199-0.398-0.511-0.739-0.717-1.134-0.487-0.935-0.935-1.89-1.418-2.825-0.083-0.163-0.263-0.276-0.398-0.412-0.117 0.185-0.246 0.365-0.343 0.559-0.041 0.083 0.001 0.202-0.019 0.3-0.018 0.092-0.068 0.177-0.105 0.265-0.109-0.091-0.282-0.163-0.317-0.276-0.148-0.481-0.236-0.98-0.384-1.461-0.101-0.328-0.177-0.737-0.411-0.937-0.652-0.556-1.007-1.2-1.184-1.884-2.671-0.345-5.112-1.27-7.284-2.765l-1.398 3.093-2.875-6.104c-2.17 5.689-2.716 11.709-1.477 18.058 1.486 7.615 5.257 13.979 11.167 18.969 6.647 5.611 14.416 8.19 23.113 7.858 1.215-0.045 2.419-0.38 3.628-0.588-0.336-0.022-0.68-0.011-0.996-0.099C42.442 70.447 42.1 70.183 42.123 70.074z" fill="#ffffff" data-fill-palette-color="accent"></path></g><g fill="#ffffff" data-fill-palette-color="accent"><path d="M43.697 70.597c-0.018 0.002-0.032 0.007-0.048 0.009 0.019 0.001 0.037 0.001 0.057 0.004L43.697 70.597z" fill="#ffffff" data-fill-palette-color="accent"></path></g></g><g fill="#ffffff" data-fill-palette-color="accent"><g fill="#ffffff" data-fill-palette-color="accent"><path d="M44.946 47.787c0.211-0.075 0.406-0.112 0.591-0.123-0.074-6.17-2.747-10.923-5.274-14.042-0.16 0.211-0.374 0.392-0.655 0.544-0.482 0.262-0.881 0.676-1.346 0.978-0.671 0.436-0.97 0.965-0.732 1.79 0.166 0.577 0.24 1.188 0.281 1.788 0.015 0.211-0.189 0.438-0.294 0.657-0.169-0.144-0.392-0.257-0.493-0.438-0.145-0.258-0.258-0.562-0.282-0.854-0.063-0.775-0.244-1.301-1.202-1.409-0.676-0.077-1.391-0.661-2.016-0.203-0.136 0.101-0.265 0.191-0.39 0.268-0.659 0.927-1.53 1.769-2.688 2.382l1.037 1.396-2.849-0.192c-0.024 0.221-0.046 0.441-0.068 0.662-0.089 0.891 0.739 2.294 1.479 2.441 0.47 0.094 1.037 0.096 1.461-0.089 0.348-0.151 0.552-0.638 0.815-0.979 0.061-0.08 0.091-0.231 0.161-0.249 0.465-0.114 0.937-0.201 1.407-0.298-0.063 0.305-0.119 0.611-0.191 0.913-0.07 0.292-0.143 0.586-0.24 0.87-0.383 1.129-0.386 1.125 0.883 1.235 0.25 0.022 0.51 0.034 0.744 0.113 0.482 0.162 0.788 0.447 0.576 1.025-0.086 0.235-0.147 0.487-0.17 0.734-0.11 1.202 0.456 1.75 1.791 1.754 0.316-0.01 0.633-0.02 0.949-0.028 0.407 0.23 0.763 0.638 1.188-0.065 0.544-0.895 1.267-1.56 2.438-0.945 0.697-0.401 1.291-0.176 1.931 0.21C44.101 47.821 44.615 47.908 44.946 47.787z" fill="#ffffff" data-fill-palette-color="accent"></path></g><g fill="#ffffff" data-fill-palette-color="accent"><path d="M70.885 31.56c-0.04-0.202-0.436-0.513-0.591-0.474-0.293 0.074-0.677 0.317-0.766 0.577-0.207 0.612-1.774 1.397-1.826 1.096-0.102-0.593-0.058-0.86-0.04-1.463 0.003-0.125 0.266-0.335 0.423-0.349 0.866-0.074 1.17-0.32 0.767-1.008-0.668-1.141 0.009-1.999 0.508-2.736 0.279-0.413 0.306-0.575 0.142-0.933-0.689-1.502-1.373-3.008-2.062-4.512-0.062-0.137-0.141-0.268-0.216-0.4-1.592-2.786-3.54-5.29-5.92-7.445-0.228-0.205-0.562-0.291-0.847-0.433-0.112 0.374-0.336 0.759-0.302 1.118 0.028 0.292 0.373 0.55 0.569 0.828 0.054 0.076 0.128 0.183 0.107 0.25-0.019 0.063-0.188 0.15-0.228 0.126-0.823-0.5-1.408 0.431-2.087 0.366-1.019-0.097-1.347 0.444-1.589 1.23-0.119 0.385-0.243 0.772-0.421 1.13-0.05 0.102-0.342 0.193-0.447 0.14-1.038-0.521-1.803-1.228-1.807-2.525-0.001-0.412-0.219-0.83-0.37-1.233-0.121-0.324-0.243-0.588 0.299-0.573 0.07 0.002 0.178-0.266 0.218-0.421 0.428-1.654-1.274-2.442-1.593-3.831-0.12-0.521-0.86-0.91-1.346-1.328-0.141-0.121-0.377-0.128-0.568-0.193-0.285-0.098-0.568-0.202-0.815-0.29 0.336-0.271 0.659-0.532 0.983-0.792-0.388-0.205-0.763-0.442-1.168-0.603-0.368-0.146-0.823-0.123-1.146-0.325-0.634-0.396-1.821-0.603-1.957-0.688-0.165-0.105-0.372-0.195-0.562-0.197-0.244-0.002-1.476-0.307-1.5-0.315-0.281-0.104-0.577-0.188-0.876-0.231-0.998-0.146-1.995-0.333-2.998-0.396-4.959-0.305-9.782 0.368-14.425 2.158-1.222 0.472-2.392 1.078-3.577 1.641-0.1 0.048-0.133 0.235-0.197 0.358 0.093 0.035 0.184 0.091 0.28 0.101 0.749 0.075 1.528 0.039 2.237 0.247 0.447 0.131 0.813 0.195 1.284 0.147 1.2-0.122 2.388-0.598 3.617-0.239 0.614 0.18 1.344 0.245 1.8 0.626 0.724 0.607 0.649 0.685 1.103 0.774 0.169 0.033 0.454 0.151 0.46 0.244 0.03 0.483 0.136 0.481 0.513 0.216 0.379-0.266 0.874-0.625 1.264-0.569 0.831 0.119 1.726 0.333 2.41 0.785 0.696 0.461 1.001 0.008 1.431-0.248 0.511-0.305 0.935-0.651 0.4-1.322-0.06-0.076 0.209-0.476 0.394-0.657 0.122-0.12 0.365-0.118 0.555-0.17 0.048 0.224 2.202 2.091 2.588 1.864 0.16-0.096 0.46-0.011 0.673 0.062 0.094 0.032 0.128 0.238 0.19 0.365-0.487 0.153-2.604 1.273-3.101 1.833-0.285 0.321-0.683 0.639-1.085 0.742-1.436 0.364-2.49 1.286-3.504 2.265-0.378 0.365-0.179 2.516 0.192 2.522 1.328 0.02 1.899 1.302 2.991 1.645 0.655 0.205 0.732 0.592 0.594 1.155-0.048 0.19-0.147 0.459-0.062 0.576 0.278 0.383 0.631 0.712 0.955 1.062 0.233-0.354 0.647-0.699 0.663-1.062 0.033-0.793 0.097-1.395 1.008-1.694 0.299-0.098 0.691-0.808 0.592-1.061-0.411-1.039 0.292-1.82 0.464-2.709 0.179-0.923 0.243-0.911 1.209-0.688 0.818 0.19 1.869 1.183 1.646 1.743-0.295 0.736 0.219 1.058 0.558 1.344 0.154 0.131 0.753-0.25 1.143-0.418 0.082-0.036 0.122-0.158 0.192-0.229 0.271-0.278 0.374-0.13 0.512 0.156 0.512 1.059 0.369 2.389 1.301 3.276 0.479-0.039 0.966-0.061 1.457-0.061 2.556 0 4.992 0.559 7.249 1.661l0.925-3.267 7.321 10.958-10.095-1.151 0.749-2.65c-2.921-1.383-6.06-2.084-9.33-2.084-0.607 0-1.2 0.025-1.777 0.069 0.069 0.053 0.162 0.076 0.272 0.045 0.024 0.343 0.013 0.693 0.086 1.025 0.053 0.236 0.187 0.475 0.341 0.666 0.447 0.554 0.242 0.918-0.312 1.187-0.148 0.072-0.33 0.079-0.495 0.115 0.031-0.14 0.049-0.286 0.099-0.419 0.048-0.129 0.13-0.244 0.196-0.366-0.143-0.027-0.309-0.113-0.427-0.07-0.467 0.169-0.914 0.387-1.376 0.57-0.54 0.215-1.033 0.503-1.104 1.13-0.044 0.39-1.923 2.045-2.811 2.966 3.861 3.009 8.551 8.17 8.444 15.437l3.349-0.553-1.981 3.287c0.739 0.45 1.018 1.367 0.633 2.36-0.179 0.462 0.049 0.536 0.384 0.541 0.299 0.004 0.598-0.058 0.897-0.087 0.246-0.023 0.601-0.155 0.724-0.041 1.075 0.997 2.701 0.063 3.777 1.15 0.629 0.637 0.919 1.003 0.327 1.617-1.161 1.207-1.657 2.707-2.265 4.186-0.262 0.637-0.741 1.098-1.472 1.409-1.031 0.438-1.832 1.15-2.555 2.165-0.787 1.104-1.541 2.694-3.376 2.671-0.099-0.001-0.306 0.282-0.283 0.321 0.357 0.576-0.064 0.732-0.464 0.844-1.797 0.496-2.938 1.652-3.52 3.397 0.646-0.058 1.31-0.038 1.934-0.188 10.304-2.476 17.83-8.468 22.662-17.893 0.796-1.553 1.176-3.215 1.628-4.867 0.104-0.377-0.033-0.477-0.297-0.688-0.343-0.275-0.504-0.123-0.762 0.069-0.36 0.27-0.762 0.482-1.138 0.73-0.413 0.271-0.738 0.248-0.991-0.222-0.31-0.57-0.591-1.165-0.974-1.683-0.475-0.642-0.496-1.264-0.264-1.995 0.181-0.57 0.394-1.218 0.289-1.775-0.284-1.511 0.479-2.607 1.202-3.762 0.287-0.454 0.633-0.958 0.673-1.463 0.111-1.383 1.089-1.854 2.146-2.259 0.416-0.159 0.821-0.055 0.869 0.513 0.06 0.707 0.253 1.345 0.926 1.947C71.742 35.075 71.238 33.324 70.885 31.56zM49.673 14.441c-0.057 0.034-0.298-0.083-0.314-0.162-0.156-0.735-0.726-0.739-1.285-0.751-0.6-0.015-1.098-0.012-0.959-0.914 0.05-0.316-0.437-0.712-0.675-1.074-0.537-0.815-1.135-1.479-2.272-1.259-0.323 0.062-0.688-0.131-1.038-0.154-0.643-0.041-0.621-0.611-0.715-0.984C42.362 8.94 42.659 8.567 42.891 8.4c0.214-0.152 0.551-0.129 0.833-0.183-0.135 0.202-0.313 0.389-0.389 0.611-0.056 0.159 0.025 0.365 0.046 0.55 0.143-0.087 0.301-0.158 0.426-0.267 0.187-0.164 0.326-0.396 0.534-0.52 0.154-0.092 0.551-0.094 0.554-0.078 0.227 1.113 1.494 0.802 2.05 1.526 0.559 0.726 1.426 1.17 1.582 2.247 0.056 0.389 0.689 0.683 1.03 1.046 0.188 0.199 0.313 0.454 0.45 0.656C49.854 14.21 49.79 14.37 49.673 14.441z" fill="#ffffff" data-fill-palette-color="accent"></path></g><g fill="#ffffff" data-fill-palette-color="accent"><polygon points="43.706,70.609 43.71,70.596 43.697,70.597    " fill="#ffffff" data-fill-palette-color="accent"></polygon></g></g></g><path d="M21.209 31.595c-3.637 0-6.887-1.019-9.662-3.027l-0.321-0.233-1.145 2.534-4.421-9.39 7.728 2.076-1.044 2.309 0.223 0.153c3.826 2.637 8.221 3.974 13.062 3.974 0 0 0 0 0.001 0 2.068 0 3.894-0.247 5.332-0.539C28.57 30.46 25.03 31.595 21.209 31.595z" fill="#ffffff" data-fill-palette-color="accent"></path><path d="M57.879 29.147l0.689-2.438-0.243-0.119c-3.079-1.504-6.396-2.268-9.857-2.268-3.586 0-6.71 0.83-8.878 1.623 2.724-1.665 7.165-3.794 12.058-3.794 2.585 0 5.042 0.594 7.306 1.765l0.353 0.183 0.758-2.675 5.765 8.629L57.879 29.147z" fill="#ffffff" data-fill-palette-color="accent"></path><path d="M43.756 48.949l2.501-0.413 0.003-0.27c0.128-8.344-4.388-14.241-7.396-17.234 3.938 2.604 10.41 8.196 10.084 16.666l-0.016 0.396 2.743-0.453-5.358 8.889L43.756 48.949z" fill="#ffffff" data-fill-palette-color="accent"></path><path d="M26.173 39.51l2.163-2.233 0.662 0.89 0.243-0.12c2.622-1.3 4.11-3.346 4.944-5.088-0.504 2.05-1.661 4.524-4.295 5.756l-0.36 0.167 0.667 0.898L26.173 39.51z" fill="#ffffff" data-fill-palette-color="accent"></path><path d="M32.481 24.355c-1.595-1.383-3.271-3.539-3.167-6.445l0.015-0.397-1.104 0.185 2.074-3.459 1.002 2.943-1.094 0.184-0.003 0.271C30.167 20.562 31.31 22.818 32.481 24.355z" fill="#ffffff" data-fill-palette-color="accent"></path></svg></g></svg></g></svg></g><defs></defs></svg><rect width="395.52" height="47.74670163872243" fill="none" stroke="none" visibility="hidden"></rect></g></svg></g></svg>